# xmcd
#
# Track frame offsets: 
#        150
#        20140
#        41595
#
# Disc length: 818 seconds
#
# Revision: 1
# Processed by: cddbd v1.5.2PL0 Copyright (c) Steve Scherf et al.
# Submitted via: ExactAudioCopy v1.3
#
DISCID=20033003
DTITLE=Russ Ballard - Blue For You
DYEAR=1993
DGENRE=Rock
TTITLE0=Blue For You
TTITLE1=Possession
TTITLE2=It Takes A Man To Walk Away
EXTD=YEAR: 1995/7/5
EXTT0=
EXTT1=
EXTT2=
PLAYORDER=
